# Blender v2.91.0 OBJ File: ''
# www.blender.org
mtllib tension.mtl
o Icosphere
v 0.001534 0.228989 -0.001400
v 0.009093 0.265318 0.056456
v -0.026879 0.326217 0.032365
v 0.014603 0.349832 -0.001414
v 0.040737 0.340886 -0.012926
v 0.008899 0.344754 -0.026395
v 0.025653 0.323673 -0.048032
v 0.047546 0.322720 -0.034624
v -0.015929 0.345142 -0.007117
v -0.022074 0.328778 -0.034708
v -0.004094 0.320524 -0.051575
v 0.004633 0.347902 0.016644
v -0.011800 0.337953 0.030728
v -0.034524 0.332871 -0.000072
v -0.041910 0.317753 0.016928
v 0.012724 0.331885 0.044473
v 0.029238 0.323517 0.046575
v 0.034652 0.342398 0.017665
v 0.062696 0.319645 0.001686
v 0.052894 0.317595 0.032129
v 0.068868 0.289004 -0.014721
v 0.060850 0.300346 -0.030915
v 0.047636 0.266758 -0.042243
v 0.036874 0.287490 -0.055052
v 0.015309 0.297668 -0.060196
v -0.010411 0.284464 -0.057891
v -0.030898 0.292799 -0.046857
v -0.038620 0.315251 -0.027644
v -0.047211 0.288172 -0.023808
v -0.046951 0.265938 0.002893
v -0.051353 0.300394 -0.003595
v -0.046605 0.279582 0.022332
v -0.040736 0.299213 0.033570
v -0.019378 0.311108 0.049570
v -0.014802 0.266878 0.051038
v -0.008583 0.290533 0.057874
v 0.012919 0.300622 0.060003
v 0.040637 0.297691 0.051258
v 0.051276 0.287129 0.044131
v 0.067926 0.290760 0.016764
v 0.062960 0.269980 0.021166
v 0.009774 0.269593 -0.057717
v -0.041084 0.263736 -0.022805
v -0.027812 0.260704 -0.038795
v -0.030457 0.282393 0.045392
v -0.037147 0.255218 0.019333
v -0.025093 0.255723 0.037353
v 0.026726 0.269475 0.055486
v 0.047770 0.254935 0.032809
v 0.067608 0.273543 -0.004692
v 0.056642 0.258203 -0.021679
v 0.055222 0.249368 0.003557
v 0.025401 0.236297 -0.026333
v 0.017572 0.250126 -0.045977
v -0.007680 0.255651 -0.047829
v -0.008299 0.237552 -0.027533
v -0.031476 0.245302 -0.011725
v -0.018262 0.236010 0.012111
v 0.001453 0.239326 0.034308
v 0.048099 0.244243 -0.012264
v 0.027621 0.231569 0.009833
v 0.025730 0.244408 0.037193
vn 0.3314 0.9433 0.0193
vn 0.2172 0.9457 -0.2418
vn 0.3177 0.7903 -0.5240
vn 0.3584 0.7681 -0.5306
vn 0.7556 0.5992 -0.2645
vn -0.1181 0.9780 -0.1719
vn -0.3203 0.8444 -0.4295
vn -0.2265 0.7576 -0.6122
vn 0.0067 0.7188 -0.6952
vn -0.1554 0.9877 0.0198
vn -0.4803 0.8506 0.2140
vn -0.5676 0.7699 0.2917
vn -0.6022 0.7383 -0.3037
vn -0.6820 0.6680 0.2978
vn -0.6778 0.6611 -0.3218
vn -0.3666 0.9059 0.2121
vn -0.0767 0.8544 0.5140
vn -0.3914 0.6001 0.6976
vn -0.2712 0.6031 0.7502
vn 0.1448 0.8752 0.4616
vn 0.1703 0.9655 0.1972
vn 0.3169 0.7659 0.5595
vn 0.6591 0.7462 0.0942
vn 0.4985 0.6801 0.5375
vn 0.6945 0.6674 0.2686
vn 0.8518 -0.2320 -0.4696
vn 0.9200 0.3122 -0.2369
vn 0.8384 0.4468 -0.3120
vn 0.8385 -0.1536 -0.5228
vn 0.6196 0.2448 -0.7458
vn 0.7221 -0.0514 -0.6899
vn 0.5060 0.3128 -0.8038
vn -0.0491 -0.0783 -0.9957
vn 0.0664 0.4010 -0.9137
vn -0.1896 0.2015 -0.9610
vn -0.5312 0.3851 -0.7547
vn -0.3896 0.2247 -0.8931
vn -0.6098 0.3837 -0.6935
vn -0.2429 -0.3403 -0.9084
vn -0.9113 0.2419 -0.3331
vn -0.8673 0.4679 -0.1702
vn -0.8886 0.4581 0.0214
vn -0.9827 -0.1468 -0.1126
vn -0.9896 -0.1087 0.0939
vn -0.9527 0.1267 0.2762
vn -0.9429 0.1874 0.2753
vn -0.7555 0.4105 0.5106
vn -0.6806 0.3773 0.6281
vn -0.5150 0.0745 0.8539
vn -0.4524 -0.1358 0.8814
vn -0.2174 0.2651 0.9394
vn -0.1437 0.4395 0.8867
vn -0.2293 -0.2141 0.9495
vn 0.1111 0.4427 0.8898
vn -0.0543 -0.0940 0.9941
vn 0.5496 0.3777 0.7452
vn 0.6903 0.2332 0.6849
vn 0.8329 0.1640 0.5285
vn 0.8941 0.3235 0.3097
vn 0.7469 -0.2915 0.5977
vn 0.8560 -0.0970 0.5079
vn 0.3462 0.2810 -0.8951
vn 0.1760 -0.1210 -0.9769
vn 0.3282 -0.3673 -0.8703
vn 0.3231 -0.3905 -0.8620
vn -0.0543 -0.5315 -0.8453
vn -0.8194 0.1830 -0.5432
vn -0.7753 -0.2187 -0.5926
vn -0.5367 -0.2538 -0.8047
vn -0.7704 -0.2240 -0.5969
vn -0.9493 -0.2461 -0.1957
vn -0.4543 -0.3318 -0.8268
vn -0.6419 0.1379 0.7543
vn -0.8108 -0.0888 0.5786
vn -0.8827 -0.3772 0.2804
vn -0.7561 -0.3236 0.5689
vn -0.5980 -0.3392 0.7262
vn -0.7696 -0.3634 0.5250
vn 0.3157 0.3024 0.8994
vn 0.3004 -0.0052 0.9538
vn 0.0800 -0.1082 0.9909
vn 0.4790 -0.1056 0.8715
vn 0.5797 -0.3258 0.7468
vn 0.9821 0.1877 0.0189
vn 0.9977 -0.0598 0.0332
vn 0.9687 -0.2005 0.1465
vn 0.9018 -0.2845 -0.3253
vn 0.8991 -0.4255 0.1030
vn 0.8661 -0.4850 -0.1211
vn 0.5332 -0.6725 -0.5133
vn 0.5476 -0.6650 -0.5079
vn 0.4350 -0.6454 -0.6278
vn 0.1559 -0.9782 -0.1374
vn -0.0101 -0.8195 -0.5729
vn -0.1132 -0.7398 -0.6632
vn -0.0247 -0.9527 -0.3029
vn -0.4384 -0.6641 -0.6056
vn -0.5504 -0.6915 -0.4679
vn -0.6638 -0.6079 -0.4357
vn -0.3957 -0.9084 -0.1348
vn -0.8384 -0.5250 -0.1464
vn -0.4139 -0.8996 -0.1390
vn -0.7789 -0.6246 0.0572
vn -0.6897 -0.7168 0.1029
vn -0.5724 -0.7142 0.4029
vn -0.4182 -0.7673 0.4861
vn -0.1494 -0.9499 0.2746
vn -0.2981 -0.6178 0.7277
vn 0.7887 -0.5927 -0.1631
vn 0.4048 -0.9032 -0.1429
vn 0.5459 -0.8375 0.0255
vn 0.7777 -0.5508 0.3029
vn 0.5644 -0.7726 0.2908
vn -0.2143 -0.5963 0.7737
vn 0.0478 -0.6559 0.7533
vn 0.1812 -0.5844 0.7909
vn 0.4073 -0.5489 0.7299
vn 0.1360 -0.8932 0.4286
vn -0.0247 -0.9603 0.2779
vn 0.4585 -0.7919 0.4033
usemtl Default_OBJ
s off
f 18//1 5//1 4//1
f 5//2 6//2 4//2
f 5//3 7//3 6//3
f 8//4 7//4 5//4
f 19//5 8//5 5//5
f 4//6 6//6 9//6
f 6//7 10//7 9//7
f 11//8 10//8 6//8
f 7//9 11//9 6//9
f 9//10 12//10 4//10
f 9//11 14//11 13//11
f 14//12 3//12 13//12
f 10//13 14//13 9//13
f 15//14 3//14 14//14
f 10//15 28//15 14//15
f 9//16 13//16 12//16
f 13//17 16//17 12//17
f 3//18 34//18 13//18
f 34//19 16//19 13//19
f 16//20 18//20 12//20
f 12//21 18//21 4//21
f 17//22 18//22 16//22
f 18//23 19//23 5//23
f 17//24 20//24 18//24
f 18//25 20//25 19//25
f 51//26 23//26 21//26
f 21//27 22//27 19//27
f 19//28 22//28 8//28
f 21//29 23//29 22//29
f 22//30 24//30 8//30
f 23//31 24//31 22//31
f 24//32 7//32 8//32
f 42//33 26//33 25//33
f 25//34 11//34 7//34
f 26//35 11//35 25//35
f 27//36 10//36 11//36
f 26//37 27//37 11//37
f 27//38 28//38 10//38
f 55//39 26//39 42//39
f 29//40 31//40 28//40
f 31//41 14//41 28//41
f 31//42 15//42 14//42
f 30//43 31//43 29//43
f 30//44 32//44 31//44
f 32//45 33//45 31//45
f 31//46 33//46 15//46
f 33//47 3//47 15//47
f 33//48 34//48 3//48
f 45//49 36//49 34//49
f 35//50 36//50 45//50
f 36//51 37//51 34//51
f 34//52 37//52 16//52
f 35//53 2//53 36//53
f 37//54 17//54 16//54
f 2//55 37//55 36//55
f 38//56 20//56 17//56
f 39//57 20//57 38//57
f 39//58 40//58 20//58
f 40//59 19//59 20//59
f 49//60 41//60 39//60
f 41//61 40//61 39//61
f 24//62 25//62 7//62
f 24//63 42//63 25//63
f 23//64 42//64 24//64
f 23//65 54//65 42//65
f 54//66 55//66 42//66
f 27//67 29//67 28//67
f 27//68 43//68 29//68
f 26//69 44//69 27//69
f 27//70 44//70 43//70
f 43//71 30//71 29//71
f 26//72 55//72 44//72
f 33//73 45//73 34//73
f 32//74 45//74 33//74
f 30//75 46//75 32//75
f 32//76 47//76 45//76
f 47//77 35//77 45//77
f 46//78 47//78 32//78
f 37//79 38//79 17//79
f 37//80 48//80 38//80
f 2//81 48//81 37//81
f 48//82 39//82 38//82
f 48//83 49//83 39//83
f 40//84 21//84 19//84
f 40//85 50//85 21//85
f 40//86 41//86 50//86
f 50//87 51//87 21//87
f 41//88 52//88 50//88
f 52//89 51//89 50//89
f 60//90 23//90 51//90
f 60//91 53//91 23//91
f 53//92 54//92 23//92
f 61//93 1//93 53//93
f 53//94 56//94 54//94
f 56//95 55//95 54//95
f 1//96 56//96 53//96
f 56//97 44//97 55//97
f 56//98 57//98 44//98
f 57//99 43//99 44//99
f 58//100 57//100 56//100
f 57//101 30//101 43//101
f 1//102 58//102 56//102
f 57//103 46//103 30//103
f 57//104 58//104 46//104
f 58//105 47//105 46//105
f 58//106 59//106 47//106
f 1//107 59//107 58//107
f 47//108 59//108 35//108
f 52//109 60//109 51//109
f 60//110 61//110 53//110
f 52//111 61//111 60//111
f 41//112 49//112 52//112
f 49//113 61//113 52//113
f 59//114 2//114 35//114
f 59//115 62//115 2//115
f 62//116 48//116 2//116
f 62//117 49//117 48//117
f 59//118 61//118 62//118
f 1//119 61//119 59//119
f 61//120 49//120 62//120
